<svg width="18" height="19" viewBox="0 0 18 19" fill="none" xmlns="http://www.w3.org/2000/svg">
<mask id="mask0_121_505" style="mask-type:alpha" maskUnits="userSpaceOnUse" x="0" y="0" width="18" height="19">
<rect y="0.5" width="18" height="18" fill="#D9D9D9"/>
</mask>
<g mask="url(#mask0_121_505)">
<path d="M11.9996 6.8L5.32461 13.475C5.18711 13.6125 5.01211 13.6812 4.79961 13.6812C4.58711 13.6812 4.41211 13.6125 4.27461 13.475C4.13711 13.3375 4.06836 13.1625 4.06836 12.95C4.06836 12.7375 4.13711 12.5625 4.27461 12.425L10.9496 5.75H5.24961C5.03711 5.75 4.85898 5.67813 4.71523 5.53437C4.57148 5.39062 4.49961 5.2125 4.49961 5C4.49961 4.7875 4.57148 4.60938 4.71523 4.46562C4.85898 4.32187 5.03711 4.25 5.24961 4.25H12.7496C12.9621 4.25 13.1402 4.32187 13.284 4.46562C13.4277 4.60938 13.4996 4.7875 13.4996 5V12.5C13.4996 12.7125 13.4277 12.8906 13.284 13.0344C13.1402 13.1781 12.9621 13.25 12.7496 13.25C12.5371 13.25 12.359 13.1781 12.2152 13.0344C12.0715 12.8906 11.9996 12.7125 11.9996 12.5V6.8Z" fill="#1B8154"/>
</g>
</svg>
