<svg width="24" height="24" viewBox="0 0 24 24" fill="none" xmlns="http://www.w3.org/2000/svg">
  <path d="M12.0008 14.95C11.8674 14.95 11.7424 14.9292 11.6258 14.8875C11.5091 14.8459 11.4008 14.775 11.3008 14.675L6.70078 10.075C6.51745 9.89169 6.42578 9.65836 6.42578 9.37502C6.42578 9.09169 6.51745 8.85836 6.70078 8.67502C6.88411 8.49169 7.11745 8.40002 7.40078 8.40002C7.68411 8.40002 7.91745 8.49169 8.10078 8.67502L12.0008 12.575L15.9008 8.67502C16.0841 8.49169 16.3174 8.40002 16.6008 8.40002C16.8841 8.40002 17.1174 8.49169 17.3008 8.67502C17.4841 8.85836 17.5758 9.09169 17.5758 9.37502C17.5758 9.65836 17.4841 9.89169 17.3008 10.075L12.7008 14.675C12.6008 14.775 12.4924 14.8459 12.3758 14.8875C12.2591 14.9292 12.1341 14.95 12.0008 14.95Z" fill="#6A6C72"/>
</svg>
