<svg version="1.1" id="Layer_1" xmlns="http://www.w3.org/2000/svg" xmlns:xlink="http://www.w3.org/1999/xlink" x="0px" y="0px" viewBox="0 0 512 512" style="enable-background:new 0 0 512 512;" xml:space="preserve">
	<g>
		<g>
			<path d="M139.13,0H38.957c-9.217,0-16.696,7.479-16.696,16.696v478.609c0,9.217,7.479,16.696,16.696,16.696H139.13
				c9.217,0,16.696-7.479,16.696-16.696V16.696C155.826,7.479,148.348,0,139.13,0z"/>
		</g>
	</g>
	<g>
		<g>
			<path d="M306.087,267.13H205.913c-9.217,0-16.696,7.479-16.696,16.696v211.478c0,9.217,7.479,16.696,16.696,16.696h100.174
				c9.217,0,16.696-7.479,16.696-16.696V283.826C322.783,274.609,315.304,267.13,306.087,267.13z"/>
		</g>
	</g>
	<g>
		<g>
			<path d="M473.043,133.565H372.87c-9.217,0-16.696,7.479-16.696,16.696v345.043c0,9.217,7.479,16.696,16.696,16.696h100.174
				c9.217,0,16.696-7.479,16.696-16.696V150.261C489.739,141.044,482.261,133.565,473.043,133.565z"/>
		</g>
	</g>
</svg>
