<svg version="1.1" id="Capa_1" xmlns="http://www.w3.org/2000/svg" xmlns:xlink="http://www.w3.org/1999/xlink" x="0px" y="0px" viewBox="0 0 511.604 511.604" style="enable-background:new 0 0 511.604 511.604;" xml:space="preserve">
	<g>
		<g>
			<g>
				<path d="M119.071,376.89c-14.138,0-25.6,11.462-25.6,25.6c0,14.138,11.461,25.6,25.6,25.6s25.6-11.462,25.6-25.6
					C144.655,388.358,133.203,376.905,119.071,376.89z M119.071,411.023c-4.713,0-8.533-3.821-8.533-8.533s3.82-8.533,8.533-8.533
					s8.533,3.82,8.533,8.533C127.599,407.201,123.782,411.018,119.071,411.023z"/>
				<path d="M392.137,376.89c-14.138,0-25.6,11.462-25.6,25.6c0,14.138,11.462,25.6,25.6,25.6c14.138,0,25.6-11.462,25.6-25.6
					C417.722,388.358,406.27,376.905,392.137,376.89z M392.137,411.023c-4.713,0-8.533-3.821-8.533-8.533s3.821-8.533,8.533-8.533
					c4.713,0,8.533,3.82,8.533,8.533C400.666,407.201,396.848,411.018,392.137,411.023z"/>
				<path d="M505.1,255.423l-58.783-66.2c-4.87-5.484-11.858-8.615-19.192-8.6h-86.188c-2.263-0.001-4.434,0.898-6.035,2.499
					c-1.6,1.6-2.499,3.771-2.499,6.035v153.6h-34.133V325.69c-0.02-6.069-3.272-11.668-8.533-14.693v-45.041
					c-0.021-1-0.221-1.988-0.589-2.918c2.838-2.972,4.917-6.585,6.06-10.532l28.233-97.917c2.284-7.947,0.597-16.507-4.533-22.992
					L282.188,85.24c-0.76-0.95-1.587-1.845-2.475-2.678c-0.069-0.143-0.065-0.307-0.142-0.447c-1.094-1.983-2.932-3.449-5.108-4.075
					l-5.233-1.508l-0.021-0.009L178.737,50.44l-0.026-0.005l-2.641-0.761c-1.216-0.329-2.491-0.381-3.73-0.151
					c-0.584-0.016-1.168-0.095-1.749-0.066l-119.75,4.917c-11.014,0.44-20.506,7.889-23.55,18.483l-26.283,91.15
					c-3.061,10.589,1.003,21.948,10.088,28.192l39.708,27.308v123.25h-25.6c-2.263-0.001-4.434,0.898-6.035,2.499
					c-1.6,1.6-2.499,3.771-2.499,6.035v34.133c0.015,14.132,11.468,25.585,25.6,25.6h17.748c4.206,29.38,29.372,51.2,59.052,51.2
					s54.846-21.819,59.052-51.2h154.964c4.206,29.38,29.372,51.2,59.052,51.2c29.68,0,54.846-21.819,59.052-51.2h34.815
					c14.132-0.015,25.585-11.468,25.6-25.6V272.44C511.598,266.162,509.283,260.105,505.1,255.423z M275.706,104.54l29.823,37.658
					c1.712,2.159,2.275,5.011,1.513,7.658l-28.233,97.917c-0.762,2.646-2.757,4.76-5.354,5.675l-45.299,16L275.706,104.54z
					 M272.671,271.831v36.792h-17.067v-30.765L272.671,271.831z M238.537,283.887v24.736H127.604
					c-9.421,0.011-17.056,7.645-17.067,17.067v17.067h-8.533v-88.037l7.834,5.388c0.478,0.329,1.003,0.57,1.5,0.865
					c0.933,0.865,2.05,1.507,3.267,1.877l2.583,0.745l0.08,0.03l66.552,19.186l29.172,8.414c2.175,0.627,4.511,0.363,6.492-0.733
					c0.154-0.085,0.247-0.24,0.395-0.333c1.18-0.221,2.343-0.525,3.48-0.908L238.537,283.887z M179.542,68.44l81.996,23.633
					l-52.013,180.384l-81.996-23.642L179.542,68.44z M20.775,178.14c-3.031-2.081-4.387-5.869-3.367-9.4l26.283-91.158
					c1.014-3.531,4.179-6.014,7.85-6.158l110.688-4.545l-50.182,174.027L65.48,208.884c-0.822-0.869-1.818-1.554-2.923-2.01
					L20.775,178.14z M84.937,242.981v99.775H67.871V231.244L84.937,242.981z M60.019,393.956H42.271
					c-4.711-0.005-8.529-3.822-8.533-8.533v-25.6h43.61C67.974,368.985,61.883,380.982,60.019,393.956z M119.071,445.156
					c-23.564,0-42.667-19.102-42.667-42.667c0-23.564,19.103-42.667,42.667-42.667s42.667,19.102,42.667,42.667
					C161.71,426.042,142.623,445.129,119.071,445.156z M204.404,393.956h-26.282c-1.864-12.974-7.954-24.971-17.328-34.133h43.61
					V393.956z M281.204,393.956h-59.733v-34.133h59.733V393.956z M281.204,342.756h-153.6V325.69h153.6V342.756z M333.086,393.956
					h-34.815v-34.133h52.143C341.04,368.985,334.95,380.982,333.086,393.956z M392.137,445.156
					c-23.564,0-42.667-19.102-42.667-42.667c0-23.564,19.102-42.667,42.667-42.667c23.564,0,42.667,19.102,42.667,42.667
					C434.776,426.042,415.69,445.129,392.137,445.156z M494.537,385.423c-0.005,4.711-3.822,8.529-8.533,8.533h-34.815
					c-4.255-29.353-29.391-51.147-59.052-51.2h-42.667V197.69h34.133v85.333c0.015,14.132,11.468,25.585,25.6,25.6h85.333V385.423z
					 M494.537,291.556h-85.333c-4.711-0.005-8.529-3.823-8.533-8.533V197.69h26.454c2.45-0.014,4.788,1.024,6.421,2.85l58.804,66.225
					c1.4,1.56,2.178,3.579,2.188,5.675V291.556z"/>
			</g>
		</g>
	</g>
</svg>
