<svg xmlns="http://www.w3.org/2000/svg" xmlns:xlink="http://www.w3.org/1999/xlink"><symbol id="icon__arrow--down" viewBox="0 0 24 24"><g fill="none"><path d="M12 14.95c-.133 0-.258-.02-.374-.063a.876.876 0 01-.325-.212l-4.6-4.6a.948.948 0 01-.275-.7c0-.283.091-.517.275-.7a.948.948 0 01.7-.275c.283 0 .516.092.7.275l3.9 3.9 3.9-3.9a.948.948 0 01.7-.275c.283 0 .516.092.7.275a.948.948 0 01.275.7.948.948 0 01-.275.7l-4.6 4.6c-.1.1-.209.17-.325.212a1.106 1.106 0 01-.375.063z" fill="#6A6C72"/></g></symbol><symbol id="icon__arrow--ext" viewBox="0 0 18 19"><g fill="none"><mask id="a" style="mask-type:alpha" maskUnits="userSpaceOnUse" x="0" y="0" width="18" height="19"><path fill="#D9D9D9" d="M0 .5h18v18H0z"/></mask><g mask="url(#a)"><path d="M12 6.8l-6.675 6.675a.711.711 0 01-.525.206.711.711 0 01-.525-.206.711.711 0 01-.207-.525c0-.212.07-.387.207-.525L10.95 5.75h-5.7a.726.726 0 01-.535-.216A.726.726 0 014.5 5c0-.213.071-.39.215-.534a.726.726 0 01.535-.216h7.5c.212 0 .39.072.534.216A.726.726 0 0113.5 5v7.5c0 .213-.072.39-.216.534a.726.726 0 01-.534.216.726.726 0 01-.535-.216A.726.726 0 0112 12.5V6.8z" fill="#1B8154"/></g></g></symbol><view id="icon__arrow--down-view" viewBox="0 0 24 24"/><use href="#icon__arrow--down" width="24" height="24" x="0" y="0"/></svg>